# xmcd
#
# Track frame offsets: 
#        150
#        10822
#        24605
#        39107
#        50262
#        57150
#        65825
#        73410
#        82337
#        91502
#        97030
#        104582
#        117712
#        124837
#        136165
#        147162
#        160185
#        173472
#        184255
#        195060
#
# Disc length: 2755 seconds
#
# Revision: 1
# Processed by: cddbd v1.5.2PL0 Copyright (c) Steve Scherf et al.
# Submitted via: ExactAudioCopy v0.95b4
#
DISCID=140ac114
DTITLE=George Jones - Ways Of The World
DYEAR=2000
DGENRE=Country
TTITLE0=Don't You Ever Get Tired Of Hurting Me
TTITLE1=Open Pit Heart
TTITLE2=On The Banks Of The Ponchertrain
TTITLE3=A House Without Love
TTITLE4=Ways Of The World
TTITLE5=Please Don't Let That Woman Get Me
TTITLE6=Yes I Know Why
TTITLE7=Jonesy
TTITLE8=Old Brush Arbor
TTITLE9=Liberty
TTITLE10=Jambalaya
TTITLE11=Cold Cold Heart
TTITLE12=Ragged But I'm Right
TTITLE13=Tarnished Angel
TTITLE14=Tender Years
TTITLE15=Wedding Bells
TTITLE16=Things Have Gone To Pieces
TTITLE17=World Of Forgotten People
TTITLE18=From Now On
TTITLE19=I Can't Escape From You
EXTD=
EXTT0=
EXTT1=
EXTT2=
EXTT3=
EXTT4=
EXTT5=
EXTT6=
EXTT7=
EXTT8=
EXTT9=
EXTT10=
EXTT11=
EXTT12=
EXTT13=
EXTT14=
EXTT15=
EXTT16=
EXTT17=
EXTT18=
EXTT19=
PLAYORDER=
